<mxfile host="65bd71144e" modified="2023-11-21T14:13:48.910Z" agent="Mozilla/5.0 (Windows NT 10.0; Win64; x64) AppleWebKit/537.36 (KHTML, like Gecko) Code/1.84.2 Chrome/114.0.5735.289 Electron/25.9.2 Safari/537.36" version="22.1.3" etag="WUabki5AfuxBkn5IySWa" type="embed">
    <diagram id="QQW6dmDmdFCEicIB77Lp" name="Page-1">
        <mxGraphModel dx="2688" dy="586" grid="1" gridSize="10" guides="1" tooltips="1" connect="1" arrows="1" fold="1" page="1" pageScale="1" pageWidth="850" pageHeight="1100" math="0" shadow="0">
            <root>
                <mxCell id="0"/>
                <mxCell id="1" parent="0"/>
                <mxCell id="10" value="Program Instance" style="rounded=1;whiteSpace=wrap;html=1;verticalAlign=top;fontSize=15;fillColor=none;fontStyle=1" parent="1" vertex="1">
                    <mxGeometry x="180" y="470" width="360" height="260" as="geometry"/>
                </mxCell>
                <mxCell id="12" style="edgeStyle=none;html=1;exitX=0.5;exitY=1;exitDx=0;exitDy=0;entryX=0.5;entryY=0;entryDx=0;entryDy=0;fontSize=15;" parent="1" source="2" target="10" edge="1">
                    <mxGeometry relative="1" as="geometry"/>
                </mxCell>
                <mxCell id="2" value="Program" style="rounded=1;whiteSpace=wrap;html=1;verticalAlign=top;fontSize=15;fillColor=none;fontStyle=1" parent="1" vertex="1">
                    <mxGeometry x="180" y="70" width="360" height="290" as="geometry"/>
                </mxCell>
                <mxCell id="3" value="Host Block b1&lt;br style=&quot;font-size: 15px;&quot;&gt;exp duration: N * QL duration" style="rounded=0;whiteSpace=wrap;html=1;fontSize=15;fillColor=none;" parent="1" vertex="1">
                    <mxGeometry x="200" y="140" width="320" height="60" as="geometry"/>
                </mxCell>
                <mxCell id="4" value="Host Block b2&lt;br style=&quot;font-size: 15px;&quot;&gt;exp duration: 1 * CC duration" style="rounded=0;whiteSpace=wrap;html=1;fontSize=15;fillColor=none;" parent="1" vertex="1">
                    <mxGeometry x="200" y="210" width="320" height="60" as="geometry"/>
                </mxCell>
                <mxCell id="15" style="edgeStyle=orthogonalEdgeStyle;html=1;fontSize=15;exitX=0;exitY=0;exitDx=170;exitDy=65;exitPerimeter=0;endArrow=none;endFill=0;" parent="1" source="9" edge="1">
                    <mxGeometry relative="1" as="geometry">
                        <mxPoint x="350" y="410" as="targetPoint"/>
                        <mxPoint x="230" y="410" as="sourcePoint"/>
                        <Array as="points">
                            <mxPoint x="180" y="345"/>
                            <mxPoint x="180" y="410"/>
                        </Array>
                    </mxGeometry>
                </mxCell>
                <mxCell id="9" value="EHI:&lt;br style=&quot;font-size: 15px;&quot;&gt;&lt;br style=&quot;font-size: 15px;&quot;&gt;QL duration = 100us&lt;br style=&quot;font-size: 15px;&quot;&gt;CC duration = 2 ms&lt;br style=&quot;font-size: 15px;&quot;&gt;decoherence rate: 0.2" style="shape=note;whiteSpace=wrap;html=1;backgroundOutline=1;darkOpacity=0.05;fontSize=15;fillColor=none;size=22;" parent="1" vertex="1">
                    <mxGeometry x="-20" y="280" width="170" height="100" as="geometry"/>
                </mxCell>
                <mxCell id="16" value="Instantiate" style="text;html=1;strokeColor=none;fillColor=none;align=center;verticalAlign=middle;whiteSpace=wrap;rounded=0;fontSize=15;" parent="1" vertex="1">
                    <mxGeometry x="373" y="395" width="60" height="30" as="geometry"/>
                </mxCell>
                <mxCell id="18" value="Host Block b3&lt;br style=&quot;font-size: 15px;&quot;&gt;exp duration: 1 * QL duration&lt;br style=&quot;font-size: 15px;&quot;&gt;deadline rel. to b1: 10 QL duration / decoh_rate" style="rounded=0;whiteSpace=wrap;html=1;fontSize=15;fillColor=none;" parent="1" vertex="1">
                    <mxGeometry x="200" y="280" width="320" height="60" as="geometry"/>
                </mxCell>
                <mxCell id="19" value="Host Block b1&lt;br style=&quot;font-size: 15px;&quot;&gt;exp duration: 1 ms" style="rounded=0;whiteSpace=wrap;html=1;fontSize=15;fillColor=none;" parent="1" vertex="1">
                    <mxGeometry x="210" y="510" width="310" height="60" as="geometry"/>
                </mxCell>
                <mxCell id="20" value="Host Block b2&lt;br style=&quot;font-size: 15px;&quot;&gt;exp duration: 2 ms" style="rounded=0;whiteSpace=wrap;html=1;fontSize=15;fillColor=none;" parent="1" vertex="1">
                    <mxGeometry x="210" y="580" width="310" height="60" as="geometry"/>
                </mxCell>
                <mxCell id="21" value="Host Block b3&lt;br style=&quot;font-size: 15px;&quot;&gt;exp duration: 100 us&lt;br style=&quot;font-size: 15px;&quot;&gt;deadline relative to b1: 5 ms" style="rounded=0;whiteSpace=wrap;html=1;fontSize=15;fillColor=none;" parent="1" vertex="1">
                    <mxGeometry x="210" y="650" width="310" height="60" as="geometry"/>
                </mxCell>
                <mxCell id="22" value="Global arguments: N" style="text;html=1;strokeColor=none;fillColor=none;align=left;verticalAlign=middle;whiteSpace=wrap;rounded=0;fontSize=15;fontStyle=2" parent="1" vertex="1">
                    <mxGeometry x="200" y="100" width="260" height="40" as="geometry"/>
                </mxCell>
                <mxCell id="24" style="edgeStyle=orthogonalEdgeStyle;html=1;exitX=0;exitY=0;exitDx=170;exitDy=65;exitPerimeter=0;fontSize=15;" parent="1" source="23" edge="1">
                    <mxGeometry relative="1" as="geometry">
                        <mxPoint x="360" y="410" as="targetPoint"/>
                        <Array as="points">
                            <mxPoint x="180" y="470"/>
                            <mxPoint x="180" y="410"/>
                        </Array>
                    </mxGeometry>
                </mxCell>
                <mxCell id="23" value="Global arguments:&lt;br&gt;&lt;br&gt;N = 10" style="shape=note;whiteSpace=wrap;html=1;backgroundOutline=1;darkOpacity=0.05;fontSize=15;fillColor=none;size=21;" parent="1" vertex="1">
                    <mxGeometry x="-20" y="405" width="170" height="100" as="geometry"/>
                </mxCell>
            </root>
        </mxGraphModel>
    </diagram>
</mxfile>